<svg xmlns="http://www.w3.org/2000/svg" viewBox="0 0 900 600" role="img" aria-label="ShopLink listing image placeholder">
  <defs>
    <linearGradient id="bg" x1="0" y1="0" x2="1" y2="1">
      <stop offset="0" stop-color="#0b72e7"/>
      <stop offset="0.38" stop-color="#08b6c8"/>
      <stop offset="0.68" stop-color="#ff2f6d"/>
      <stop offset="1" stop-color="#ffc229"/>
    </linearGradient>
    <linearGradient id="card" x1="0" y1="0" x2="1" y2="1">
      <stop offset="0" stop-color="#ffffff" stop-opacity="0.95"/>
      <stop offset="1" stop-color="#ffffff" stop-opacity="0.68"/>
    </linearGradient>
  </defs>
  <rect width="900" height="600" rx="48" fill="url(#bg)"/>
  <circle cx="720" cy="120" r="92" fill="#ffffff" opacity="0.18"/>
  <circle cx="170" cy="500" r="128" fill="#ffffff" opacity="0.16"/>
  <rect x="184" y="126" width="532" height="348" rx="34" fill="url(#card)"/>
  <rect x="232" y="184" width="310" height="34" rx="17" fill="#10233f" opacity="0.22"/>
  <rect x="232" y="247" width="436" height="30" rx="15" fill="#10233f" opacity="0.14"/>
  <rect x="232" y="306" width="370" height="30" rx="15" fill="#10233f" opacity="0.12"/>
  <rect x="232" y="381" width="178" height="54" rx="18" fill="#ff2f6d"/>
  <path d="M595 370c42-47 88-86 88-139 0-49-39-87-88-87-31 0-58 16-75 40-16-24-44-40-75-40-49 0-88 38-88 87 0 53 46 92 88 139l75 75 75-75z" fill="#7a3ff2" opacity="0.88"/>
</svg>
