<svg xmlns="http://www.w3.org/2000/svg" viewBox="0 0 512 512">
  <rect width="512" height="512" rx="112" fill="#0b7dd8"/>
  <path d="M170 282c-45-45-45-118 0-163 45-44 118-44 163 0l21 21-55 55-21-21a43 43 0 0 0-61 61l60 60a43 43 0 0 0 61 0l21-21 55 55-21 21c-45 45-118 45-163 0z" fill="#fff"/>
  <path d="M342 230c45 45 45 118 0 163-45 44-118 44-163 0l-21-21 55-55 21 21a43 43 0 0 0 61-61l-60-60a43 43 0 0 0-61 0l-21 21-55-55 21-21c45-45 118-45 163 0z" fill="#ff2f6d"/>
  <circle cx="256" cy="256" r="38" fill="#ffd23f"/>
</svg>
